<?xml version="1.0" encoding="UTF-8" standalone="no"?>
<svg
   xmlns:dc="http://purl.org/dc/elements/1.1/"
   xmlns:cc="http://creativecommons.org/ns#"
   xmlns:rdf="http://www.w3.org/1999/02/22-rdf-syntax-ns#"
   xmlns:svg="http://www.w3.org/2000/svg"
   xmlns="http://www.w3.org/2000/svg"
   xmlns:sodipodi="http://sodipodi.sourceforge.net/DTD/sodipodi-0.dtd"
   xmlns:inkscape="http://www.inkscape.org/namespaces/inkscape"
   enable-background="new 0 0 24 24"
   viewBox="0 0 24 24"
   fill="black"
   width="18px"
   height="18px"
   version="1.1"
   id="svg918"
   sodipodi:docname="forward5.svg"
   inkscape:version="0.92.5 (2060ec1f9f, 2020-04-08)">
  <metadata
     id="metadata924">
    <rdf:RDF>
      <cc:Work
         rdf:about="">
        <dc:format>image/svg+xml</dc:format>
        <dc:type
           rdf:resource="http://purl.org/dc/dcmitype/StillImage" />
      </cc:Work>
    </rdf:RDF>
  </metadata>
  <defs
     id="defs922" />
  <sodipodi:namedview
     pagecolor="#ffffff"
     bordercolor="#666666"
     borderopacity="1"
     objecttolerance="10"
     gridtolerance="10"
     guidetolerance="10"
     inkscape:pageopacity="0"
     inkscape:pageshadow="2"
     inkscape:window-width="1366"
     inkscape:window-height="655"
     id="namedview920"
     showgrid="false"
     inkscape:zoom="26.111111"
     inkscape:cx="9"
     inkscape:cy="9"
     inkscape:window-x="0"
     inkscape:window-y="27"
     inkscape:window-maximized="1"
     inkscape:current-layer="svg918" />
  <g
     id="g908">
    <rect
       fill="none"
       height="24"
       width="24"
       id="rect906" />
  </g>
  <g
     id="g916"
     style="fill:#ffffff">
    <g
       id="g914"
       style="fill:#ffffff">
      <path
         d="M18,13c0,3.31-2.69,6-6,6s-6-2.69-6-6s2.69-6,6-6v4l5-5l-5-5v4c-4.42,0-8,3.58-8,8c0,4.42,3.58,8,8,8c4.42,0,8-3.58,8-8 H18z"
         id="path910"
         style="fill:#ffffff" />
      <path
         d="M12.03,15.38c-0.44,0-0.58-0.31-0.6-0.56h-0.84c0.03,0.85,0.79,1.25,1.44,1.25c0.93,0,1.44-0.63,1.44-1.43 c0-1.33-0.97-1.44-1.3-1.44c-0.2,0-0.43,0.05-0.64,0.16l0.11-0.92h1.7v-0.71h-2.39l-0.25,2.17l0.67,0.17 c0.13-0.13,0.28-0.23,0.57-0.23c0.4,0,0.69,0.23,0.69,0.75C12.62,14.64,12.65,15.38,12.03,15.38z"
         id="path912"
         style="fill:#ffffff" />
    </g>
  </g>
</svg>
